{
  "accessors": [
    {
      "bufferView": 2,
      "componentType": 5126,
      "count": 65532,
      "max": [
        6.924196720123291,
        13.054031372070313,
        24.822484970092773
      ],
      "min": [
        -9.649627685546875,
        -5.742282867431641,
        -1.3290863037109375
      ],
      "type": "VEC3"
    },
    {
      "bufferView": 2,
      "byteOffset": 786384,
      "componentType": 5126,
      "count": 65532,
      "max": [
        0.9999977946281433,
        0.9999961256980896,
        0.9998919367790222
      ],
      "min": [
        -0.9999883770942688,
        -0.9999114871025085,
        -0.9999791979789734
      ],
      "type": "VEC3"
    },
    {
      "bufferView": 1,
      "componentType": 5126,
      "count": 65532,
      "max": [
        0.9996914863586426,
        0.27191153168678284
      ],
      "min": [
        6.103515625e-05,
        0.0003054930130019784
      ],
      "type": "VEC2"
    },
    {
      "bufferView": 0,
      "componentType": 5125,
      "count": 262479,
      "type": "SCALAR"
    },
    {
      "bufferView": 2,
      "byteOffset": 1572768,
      "componentType": 5126,
      "count": 65533,
      "max": [
        15.157150268554688,
        15.198928833007813,
        22.230642318725586
      ],
      "min": [
        -9.67063045501709,
        -3.852290153503418,
        -3.38946533203125
      ],
      "type": "VEC3"
    },
    {
      "bufferView": 2,
      "byteOffset": 2359164,
      "componentType": 5126,
      "count": 65533,
      "max": [
        0.999940037727356,
        0.9999746084213257,
        0.9999309778213501
      ],
      "min": [
        -0.9999968409538269,
        -0.9999900460243225,
        -0.9999614953994751
      ],
      "type": "VEC3"
    },
    {
      "bufferView": 1,
      "byteOffset": 524256,
      "componentType": 5126,
      "count": 65533,
      "max": [
        0.9996530413627625,
        0.27960196137428284
      ],
      "min": [
        6.103515625e-05,
        0.0003062082687392831
      ],
      "type": "VEC2"
    },
    {
      "bufferView": 0,
      "byteOffset": 1049916,
      "componentType": 5125,
      "count": 246606,
      "type": "SCALAR"
    },
    {
      "bufferView": 2,
      "byteOffset": 3145560,
      "componentType": 5126,
      "count": 65532,
      "max": [
        10.197565078735352,
        10.359869003295898,
        24.771671295166016
      ],
      "min": [
        -9.13480281829834,
        -3.4142446517944336,
        3.694141387939453
      ],
      "type": "VEC3"
    },
    {
      "bufferView": 2,
      "byteOffset": 3931944,
      "componentType": 5126,
      "count": 65532,
      "max": [
        0.9999999403953552,
        0.9999802112579346,
        0.9999958276748657
      ],
      "min": [
        -0.999993085861206,
        -0.9999552965164185,
        -0.9999791979789734
      ],
      "type": "VEC3"
    },
    {
      "bufferView": 1,
      "byteOffset": 1048520,
      "componentType": 5126,
      "count": 65532,
      "max": [
        0.9996229410171509,
        0.28582754731178284
      ],
      "min": [
        6.103515625e-05,
        0.0003093077102676034
      ],
      "type": "VEC2"
    },
    {
      "bufferView": 0,
      "byteOffset": 2036340,
      "componentType": 5125,
      "count": 230493,
      "type": "SCALAR"
    },
    {
      "bufferView": 2,
      "byteOffset": 4718328,
      "componentType": 5126,
      "count": 65532,
      "max": [
        15.352832794189453,
        8.242170333862305,
        25.07891845703125
      ],
      "min": [
        -9.676719665527344,
        -4.446368217468262,
        -3.6900405883789063
      ],
      "type": "VEC3"
    },
    {
      "bufferView": 2,
      "byteOffset": 5504712,
      "componentType": 5126,
      "count": 65532,
      "max": [
        0.9999521970748901,
        0.9999973177909851,
        0.9999640583992004
      ],
      "min": [
        -0.9999793767929077,
        -0.9999226331710815,
        -0.999656617641449
      ],
      "type": "VEC3"
    },
    {
      "bufferView": 1,
      "byteOffset": 1572776,
      "componentType": 5126,
      "count": 65532,
      "max": [
        0.9996694326400757,
        0.27484121918678284
      ],
      "min": [
        6.103515625e-05,
        0.00030698312912136316
      ],
      "type": "VEC2"
    },
    {
      "bufferView": 0,
      "byteOffset": 2958312,
      "componentType": 5125,
      "count": 230394,
      "type": "SCALAR"
    },
    {
      "bufferView": 2,
      "byteOffset": 6291096,
      "componentType": 5126,
      "count": 65534,
      "max": [
        11.813570022583008,
        15.198928833007813,
        24.49880027770996
      ],
      "min": [
        -9.157428741455078,
        -3.031222343444824,
        2.743640899658203
      ],
      "type": "VEC3"
    },
    {
      "bufferView": 2,
      "byteOffset": 7077504,
      "componentType": 5126,
      "count": 65534,
      "max": [
        0.9999905228614807,
        0.9999672174453735,
        0.9999840259552002
      ],
      "min": [
        -0.9999983906745911,
        -0.999912679195404,
        -0.9998395442962646
      ],
      "type": "VEC3"
    },
    {
      "bufferView": 1,
      "byteOffset": 2097032,
      "componentType": 5126,
      "count": 65534,
      "max": [
        0.9996270537376404,
        0.28875723481178284
      ],
      "min": [
        6.103515625e-05,
        0.00030567182693630457
      ],
      "type": "VEC2"
    },
    {
      "bufferView": 0,
      "byteOffset": 3879888,
      "componentType": 5125,
      "count": 241332,
      "type": "SCALAR"
    },
    {
      "bufferView": 2,
      "byteOffset": 7863912,
      "componentType": 5126,
      "count": 65532,
      "max": [
        12.084535598754883,
        14.601415634155273,
        24.88564682006836
      ],
      "min": [
        -8.850809097290039,
        -3.2479848861694336,
        -0.6857376098632813
      ],
      "type": "VEC3"
    },
    {
      "bufferView": 2,
      "byteOffset": 8650296,
      "componentType": 5126,
      "count": 65532,
      "max": [
        0.9999977946281433,
        0.9998539090156555,
        0.999811053276062
      ],
      "min": [
        -0.9999682307243347,
        -0.999718189239502,
        -0.9998395442962646
      ],
      "type": "VEC3"
    },
    {
      "bufferView": 1,
      "byteOffset": 2621304,
      "componentType": 5126,
      "count": 65532,
      "max": [
        0.999657928943634,
        0.2787719666957855
      ],
      "min": [
        6.103515625e-05,
        0.0003060890594497323
      ],
      "type": "VEC2"
    },
    {
      "bufferView": 0,
      "byteOffset": 4845216,
      "componentType": 5125,
      "count": 193350,
      "type": "SCALAR"
    },
    {
      "bufferView": 2,
      "byteOffset": 9436680,
      "componentType": 5126,
      "count": 65532,
      "max": [
        12.085563659667969,
        12.546635627746582,
        25.09347152709961
      ],
      "min": [
        -9.68548583984375,
        -8.984322547912598,
        -2.0049896240234375
      ],
      "type": "VEC3"
    },
    {
      "bufferView": 2,
      "byteOffset": 10223064,
      "componentType": 5126,
      "count": 65532,
      "max": [
        0.9999687075614929,
        0.9999430775642395,
        0.9999396204948425
      ],
      "min": [
        -0.999980092048645,
        -0.9998527765274048,
        -0.999998927116394
      ],
      "type": "VEC3"
    },
    {
      "bufferView": 1,
      "byteOffset": 3145560,
      "componentType": 5126,
      "count": 65532,
      "max": [
        0.9996828436851501,
        0.27044668793678284
      ],
      "min": [
        6.103515625e-05,
        0.00030704273376613855
      ],
      "type": "VEC2"
    },
    {
      "bufferView": 0,
      "byteOffset": 5618616,
      "componentType": 5125,
      "count": 188463,
      "type": "SCALAR"
    },
    {
      "bufferView": 2,
      "byteOffset": 11009448,
      "componentType": 5126,
      "count": 65532,
      "max": [
        9.654836654663086,
        11.270666122436523,
        24.966447830200195
      ],
      "min": [
        -9.683309555053711,
        -16.529104232788086,
        -2.0049896240234375
      ],
      "type": "VEC3"
    },
    {
      "bufferView": 2,
      "byteOffset": 11795832,
      "componentType": 5126,
      "count": 65532,
      "max": [
        0.9999881386756897,
        0.9999754428863525,
        0.9999958276748657
      ],
      "min": [
        -0.9999953508377075,
        -0.9999199509620667,
        -0.9999828338623047
      ],
      "type": "VEC3"
    },
    {
      "bufferView": 1,
      "byteOffset": 3669816,
      "componentType": 5126,
      "count": 65532,
      "max": [
        0.9996809959411621,
        0.27960196137428284
      ],
      "min": [
        6.103515625e-05,
        0.00030883087310940027
      ],
      "type": "VEC2"
    },
    {
      "bufferView": 0,
      "byteOffset": 6372468,
      "componentType": 5125,
      "count": 216723,
      "type": "SCALAR"
    },
    {
      "bufferView": 2,
      "byteOffset": 12582216,
      "componentType": 5126,
      "count": 65532,
      "max": [
        3.6346611976623535,
        -2.99202823638916,
        23.439897537231445
      ],
      "min": [
        -8.546380996704102,
        -16.5378475189209,
        3.4648399353027344
      ],
      "type": "VEC3"
    },
    {
      "bufferView": 2,
      "byteOffset": 13368600,
      "componentType": 5126,
      "count": 65532,
      "max": [
        0.9999949932098389,
        0.9999268651008606,
        0.9998972415924072
      ],
      "min": [
        -0.9999990463256836,
        -0.9999288320541382,
        -0.9997743368148804
      ],
      "type": "VEC3"
    },
    {
      "bufferView": 1,
      "byteOffset": 4194072,
      "componentType": 5126,
      "count": 65532,
      "max": [
        0.9996747374534607,
        0.28289785981178284
      ],
      "min": [
        6.103515625e-05,
        0.00030519498977810144
      ],
      "type": "VEC2"
    },
    {
      "bufferView": 0,
      "byteOffset": 7239360,
      "componentType": 5125,
      "count": 236346,
      "type": "SCALAR"
    },
    {
      "bufferView": 2,
      "byteOffset": 14154984,
      "componentType": 5126,
      "count": 65532,
      "max": [
        3.044121265411377,
        -3.1046972274780273,
        20.493133544921875
      ],
      "min": [
        -9.353588104248047,
        -16.49837303161621,
        -1.3290863037109375
      ],
      "type": "VEC3"
    },
    {
      "bufferView": 2,
      "byteOffset": 14941368,
      "componentType": 5126,
      "count": 65532,
      "max": [
        0.999980092048645,
        0.9998911023139954,
        0.9999737739562988
      ],
      "min": [
        -0.9999929666519165,
        -0.9998200535774231,
        -0.9999375343322754
      ],
      "type": "VEC3"
    },
    {
      "bufferView": 1,
      "byteOffset": 4718328,
      "componentType": 5126,
      "count": 65532,
      "max": [
        0.9996827840805054,
        0.29095450043678284
      ],
      "min": [
        6.103515625e-05,
        0.00030960573349148035
      ],
      "type": "VEC2"
    },
    {
      "bufferView": 0,
      "byteOffset": 8184744,
      "componentType": 5125,
      "count": 228129,
      "type": "SCALAR"
    },
    {
      "bufferView": 2,
      "byteOffset": 15727752,
      "componentType": 5126,
      "count": 65532,
      "max": [
        5.796008586883545,
        -3.1495590209960938,
        20.421083450317383
      ],
      "min": [
        -8.492777824401855,
        -16.524272918701172,
        -0.44561004638671875
      ],
      "type": "VEC3"
    },
    {
      "bufferView": 2,
      "byteOffset": 16514136,
      "componentType": 5126,
      "count": 65532,
      "max": [
        0.9999651312828064,
        0.9999712705612183,
        0.9999897480010986
      ],
      "min": [
        -0.9999862313270569,
        -0.9999562501907349,
        -0.9998910427093506
      ],
      "type": "VEC3"
    },
    {
      "bufferView": 1,
      "byteOffset": 5242584,
      "componentType": 5126,
      "count": 65532,
      "max": [
        0.9996860027313232,
        0.27560481429100037
      ],
      "min": [
        6.103515625e-05,
        0.0003056122222915292
      ],
      "type": "VEC2"
    },
    {
      "bufferView": 0,
      "byteOffset": 9097260,
      "componentType": 5125,
      "count": 208035,
      "type": "SCALAR"
    },
    {
      "bufferView": 2,
      "byteOffset": 17300520,
      "componentType": 5126,
      "count": 65534,
      "max": [
        6.896556377410889,
        -2.29982852935791,
        25.449737548828125
      ],
      "min": [
        -9.517459869384766,
        -16.529104232788086,
        0.6029090881347656
      ],
      "type": "VEC3"
    },
    {
      "bufferView": 2,
      "byteOffset": 18086928,
      "componentType": 5126,
      "count": 65534,
      "max": [
        0.9999787211418152,
        0.9999368786811829,
        0.9999873638153076
      ],
      "min": [
        -0.9999964237213135,
        -0.9997151494026184,
        -0.999777615070343
      ],
      "type": "VEC3"
    },
    {
      "bufferView": 1,
      "byteOffset": 5766840,
      "componentType": 5126,
      "count": 65534,
      "max": [
        0.9996857643127441,
        0.28289785981178284
      ],
      "min": [
        6.103515625e-05,
        0.0003054930130019784
      ],
      "type": "VEC2"
    },
    {
      "bufferView": 0,
      "byteOffset": 9929400,
      "componentType": 5125,
      "count": 176019,
      "type": "SCALAR"
    },
    {
      "bufferView": 2,
      "byteOffset": 18873336,
      "componentType": 5126,
      "count": 65533,
      "max": [
        5.8714776039123535,
        7.722765922546387,
        25.402219772338867
      ],
      "min": [
        -9.188150405883789,
        -16.51522445678711,
        -2.962116241455078
      ],
      "type": "VEC3"
    },
    {
      "bufferView": 2,
      "byteOffset": 19659732,
      "componentType": 5126,
      "count": 65533,
      "max": [
        0.9999462366104126,
        0.9999828338623047,
        0.9999467134475708
      ],
      "min": [
        -0.9999954104423523,
        -0.9999609589576721,
        -0.9999665021896362
      ],
      "type": "VEC3"
    },
    {
      "bufferView": 1,
      "byteOffset": 6291112,
      "componentType": 5126,
      "count": 65533,
      "max": [
        0.9996097087860107,
        0.27667227387428284
      ],
      "min": [
        6.103515625e-05,
        0.00030573143158107996
      ],
      "type": "VEC2"
    },
    {
      "bufferView": 0,
      "byteOffset": 10633476,
      "componentType": 5125,
      "count": 199125,
      "type": "SCALAR"
    },
    {
      "bufferView": 2,
      "byteOffset": 20446128,
      "componentType": 5126,
      "count": 54491,
      "max": [
        12.051986694335938,
        12.56287956237793,
        23.27025032043457
      ],
      "min": [
        -9.687187194824219,
        -3.2630748748779297,
        -1.0418777465820313
      ],
      "type": "VEC3"
    },
    {
      "bufferView": 2,
      "byteOffset": 21100020,
      "componentType": 5126,
      "count": 54491,
      "max": [
        0.9999113082885742,
        0.9999099969863892,
        0.9999476075172424
      ],
      "min": [
        -0.9999799728393555,
        -0.9999684691429138,
        -0.9994637966156006
      ],
      "type": "VEC3"
    },
    {
      "bufferView": 1,
      "byteOffset": 6815376,
      "componentType": 5126,
      "count": 54491,
      "max": [
        0.9996038675308228,
        0.27154532074928284
      ],
      "min": [
        6.103515625e-05,
        0.00030525459442287683
      ],
      "type": "VEC2"
    },
    {
      "bufferView": 0,
      "byteOffset": 11429976,
      "componentType": 5125,
      "count": 141627,
      "type": "SCALAR"
    }
  ],
  "asset": {
    "extras": {
      "author": "Andrei Loghin (https://sketchfab.com/andrei3d)",
      "license": "CC-BY-4.0 (http://creativecommons.org/licenses/by/4.0/)",
      "source": "https://sketchfab.com/3d-models/dandelion-flower-taraxacum-officinale-7b5ae00cdcde4abf922463e7280af670",
      "title": "Dandelion flower - Taraxacum officinale"
    },
    "generator": "Sketchfab-12.89.0",
    "version": "2.0"
  },
  "bufferViews": [
    {
      "buffer": 0,
      "byteLength": 11996484,
      "name": "floatBufferViews",
      "target": 34963
    },
    {
      "buffer": 0,
      "byteLength": 7251304,
      "byteOffset": 11996484,
      "byteStride": 8,
      "name": "floatBufferViews",
      "target": 34962
    },
    {
      "buffer": 0,
      "byteLength": 21753912,
      "byteOffset": 19247788,
      "byteStride": 12,
      "name": "floatBufferViews",
      "target": 34962
    }
  ],
  "buffers": [
    {
      "byteLength": 41001700,
      "uri": "scene.bin"
    }
  ],
  "extensionsUsed": [
    "KHR_materials_unlit"
  ],
  "images": [
    {
      "uri": "textures/tex_u1_v1_baseColor.jpeg"
    }
  ],
  "materials": [
    {
      "doubleSided": true,
      "extensions": {
        "KHR_materials_unlit": {}
      },
      "name": "tex_u1_v1",
      "pbrMetallicRoughness": {
        "baseColorTexture": {
          "index": 0
        },
        "metallicFactor": 0.0
      }
    }
  ],
  "meshes": [
    {
      "name": "Object_0",
      "primitives": [
        {
          "attributes": {
            "NORMAL": 1,
            "POSITION": 0,
            "TEXCOORD_0": 2
          },
          "indices": 3,
          "material": 0,
          "mode": 4
        }
      ]
    },
    {
      "name": "Object_1",
      "primitives": [
        {
          "attributes": {
            "NORMAL": 5,
            "POSITION": 4,
            "TEXCOORD_0": 6
          },
          "indices": 7,
          "material": 0,
          "mode": 4
        }
      ]
    },
    {
      "name": "Object_2",
      "primitives": [
        {
          "attributes": {
            "NORMAL": 9,
            "POSITION": 8,
            "TEXCOORD_0": 10
          },
          "indices": 11,
          "material": 0,
          "mode": 4
        }
      ]
    },
    {
      "name": "Object_3",
      "primitives": [
        {
          "attributes": {
            "NORMAL": 13,
            "POSITION": 12,
            "TEXCOORD_0": 14
          },
          "indices": 15,
          "material": 0,
          "mode": 4
        }
      ]
    },
    {
      "name": "Object_4",
      "primitives": [
        {
          "attributes": {
            "NORMAL": 17,
            "POSITION": 16,
            "TEXCOORD_0": 18
          },
          "indices": 19,
          "material": 0,
          "mode": 4
        }
      ]
    },
    {
      "name": "Object_5",
      "primitives": [
        {
          "attributes": {
            "NORMAL": 21,
            "POSITION": 20,
            "TEXCOORD_0": 22
          },
          "indices": 23,
          "material": 0,
          "mode": 4
        }
      ]
    },
    {
      "name": "Object_6",
      "primitives": [
        {
          "attributes": {
            "NORMAL": 25,
            "POSITION": 24,
            "TEXCOORD_0": 26
          },
          "indices": 27,
          "material": 0,
          "mode": 4
        }
      ]
    },
    {
      "name": "Object_7",
      "primitives": [
        {
          "attributes": {
            "NORMAL": 29,
            "POSITION": 28,
            "TEXCOORD_0": 30
          },
          "indices": 31,
          "material": 0,
          "mode": 4
        }
      ]
    },
    {
      "name": "Object_8",
      "primitives": [
        {
          "attributes": {
            "NORMAL": 33,
            "POSITION": 32,
            "TEXCOORD_0": 34
          },
          "indices": 35,
          "material": 0,
          "mode": 4
        }
      ]
    },
    {
      "name": "Object_9",
      "primitives": [
        {
          "attributes": {
            "NORMAL": 37,
            "POSITION": 36,
            "TEXCOORD_0": 38
          },
          "indices": 39,
          "material": 0,
          "mode": 4
        }
      ]
    },
    {
      "name": "Object_10",
      "primitives": [
        {
          "attributes": {
            "NORMAL": 41,
            "POSITION": 40,
            "TEXCOORD_0": 42
          },
          "indices": 43,
          "material": 0,
          "mode": 4
        }
      ]
    },
    {
      "name": "Object_11",
      "primitives": [
        {
          "attributes": {
            "NORMAL": 45,
            "POSITION": 44,
            "TEXCOORD_0": 46
          },
          "indices": 47,
          "material": 0,
          "mode": 4
        }
      ]
    },
    {
      "name": "Object_12",
      "primitives": [
        {
          "attributes": {
            "NORMAL": 49,
            "POSITION": 48,
            "TEXCOORD_0": 50
          },
          "indices": 51,
          "material": 0,
          "mode": 4
        }
      ]
    },
    {
      "name": "Object_13",
      "primitives": [
        {
          "attributes": {
            "NORMAL": 53,
            "POSITION": 52,
            "TEXCOORD_0": 54
          },
          "indices": 55,
          "material": 0,
          "mode": 4
        }
      ]
    }
  ],
  "nodes": [
    {
      "children": [
        1
      ],
      "matrix": [
        1.0,
        0.0,
        0.0,
        0.0,
        0.0,
        2.220446049250313e-16,
        -1.0,
        0.0,
        0.0,
        1.0,
        2.220446049250313e-16,
        0.0,
        0.0,
        0.0,
        0.0,
        1.0
      ],
      "name": "Sketchfab_model"
    },
    {
      "children": [
        2,
        3,
        4,
        5,
        6,
        7,
        8,
        9,
        10,
        11,
        12,
        13,
        14,
        15
      ],
      "name": "model.obj.cleaner.materialmerger.gles"
    },
    {
      "mesh": 0,
      "name": "Object_2"
    },
    {
      "mesh": 1,
      "name": "Object_3"
    },
    {
      "mesh": 2,
      "name": "Object_4"
    },
    {
      "mesh": 3,
      "name": "Object_5"
    },
    {
      "mesh": 4,
      "name": "Object_6"
    },
    {
      "mesh": 5,
      "name": "Object_7"
    },
    {
      "mesh": 6,
      "name": "Object_8"
    },
    {
      "mesh": 7,
      "name": "Object_9"
    },
    {
      "mesh": 8,
      "name": "Object_10"
    },
    {
      "mesh": 9,
      "name": "Object_11"
    },
    {
      "mesh": 10,
      "name": "Object_12"
    },
    {
      "mesh": 11,
      "name": "Object_13"
    },
    {
      "mesh": 12,
      "name": "Object_14"
    },
    {
      "mesh": 13,
      "name": "Object_15"
    }
  ],
  "samplers": [
    {
      "magFilter": 9729,
      "minFilter": 9987,
      "wrapS": 10497,
      "wrapT": 10497
    }
  ],
  "scene": 0,
  "scenes": [
    {
      "name": "Sketchfab_Scene",
      "nodes": [
        0
      ]
    }
  ],
  "textures": [
    {
      "sampler": 0,
      "source": 0
    }
  ]
}
